<svg id="Layer_2" data-name="Layer 2" xmlns="http://www.w3.org/2000/svg" xmlns:xlink="http://www.w3.org/1999/xlink" viewBox="0 0 552.26 724.75"><defs><style>.cls-1{fill:none;}.cls-2{fill:#2d5169;}.cls-3{fill:#1e2548;}.cls-4{fill:#263f5c;}.cls-5{fill:#15192d;}.cls-6{fill:#1a3447;}.cls-7{fill:#3e2348;}.cls-8{fill:#497986;}.cls-9{fill:#191c34;}.cls-10{fill:url(#New_Pattern_4);}</style><pattern id="New_Pattern_4" data-name="New Pattern 4" width="552.26" height="724.75" patternUnits="userSpaceOnUse" viewBox="0 0 552.26 724.75"><rect class="cls-1" width="552.26" height="724.75"/><polygon class="cls-2" points="414.2 543.56 276.13 724.75 552.26 724.75 414.2 543.56"/><polygon class="cls-3" points="552.26 362.37 414.2 543.56 690.33 543.56 552.26 362.37"/><polygon class="cls-4" points="552.26 724.75 690.33 543.56 414.2 543.56 552.26 724.75"/><polygon class="cls-5" points="138.07 181.19 0 362.37 276.13 362.37 138.07 181.19"/><polygon class="cls-6" points="414.2 181.19 276.13 362.37 552.26 362.37 414.2 181.19"/><polygon class="cls-4" points="276.13 0 138.07 181.19 414.2 181.19 276.13 0"/><polygon class="cls-3" points="276.13 362.37 414.2 181.19 138.07 181.19 276.13 362.37"/><polygon class="cls-4" points="414.2 543.56 552.26 362.37 276.13 362.37 414.2 543.56"/><polygon class="cls-2" points="138.07 543.56 276.13 362.37 0 362.37 138.07 543.56"/><polygon class="cls-7" points="276.13 724.75 414.2 543.56 138.07 543.56 276.13 724.75"/><polygon class="cls-8" points="276.13 362.37 138.07 543.56 414.2 543.56 276.13 362.37"/><polygon class="cls-3" points="690.33 181.19 828.4 0 552.26 0 690.33 181.19"/><polygon class="cls-9" points="414.2 181.19 552.26 0 276.13 0 414.2 181.19"/><polygon class="cls-7" points="552.26 362.37 690.33 181.19 414.2 181.19 552.26 362.37"/><polygon class="cls-8" points="552.26 0 414.2 181.19 690.33 181.19 552.26 0"/><polygon class="cls-2" points="-138.07 543.56 -276.13 724.75 0 724.75 -138.07 543.56"/><polygon class="cls-9" points="138.07 543.56 0 724.75 276.13 724.75 138.07 543.56"/><polygon class="cls-3" points="0 362.37 -138.07 543.56 138.07 543.56 0 362.37"/><polygon class="cls-4" points="0 724.75 138.07 543.56 -138.07 543.56 0 724.75"/><polygon class="cls-3" points="138.07 181.19 276.13 0 0 0 138.07 181.19"/><polygon class="cls-7" points="0 362.37 138.07 181.19 -138.07 181.19 0 362.37"/><polygon class="cls-8" points="0 0 -138.07 181.19 138.07 181.19 0 0"/></pattern></defs><rect class="cls-3" width="552.26" height="724.75"/><rect class="cls-10" width="552.26" height="724.75"/></svg>